<svg width="128" height="128" viewBox="0 0 128 128" fill="none" xmlns="http://www.w3.org/2000/svg">
  <defs>
    <linearGradient id="bg2" x1="18" y1="10" x2="112" y2="118" gradientUnits="userSpaceOnUse">
      <stop stop-color="#8FD3FF"/>
      <stop offset="1" stop-color="#63B0FF"/>
    </linearGradient>
    <linearGradient id="uniform" x1="24" y1="80" x2="104" y2="118" gradientUnits="userSpaceOnUse">
      <stop stop-color="#2D8A72"/>
      <stop offset="1" stop-color="#1C6B58"/>
    </linearGradient>
  </defs>
  <rect width="128" height="128" rx="64" fill="url(#bg2)"/>
  <circle cx="64" cy="46" r="23" fill="#F6D1B8"/>
  <path d="M41 42C41 29.3 51.3 19 64 19C76.7 19 87 29.3 87 42V46H41V42Z" fill="#2F3A52"/>
  <path d="M24 118C27.2 93 43.4 80 64 80C84.6 80 100.8 93 104 118H24Z" fill="url(#uniform)"/>
  <path d="M54 81L64 90L74 81H54Z" fill="#F4F7FB"/>
  <circle cx="56" cy="47" r="2.2" fill="#3F342D"/>
  <circle cx="72" cy="47" r="2.2" fill="#3F342D"/>
  <path d="M57 57.5C59.8 59.8 62.5 60.8 65.4 60.5C67.8 60.3 70.1 59.2 71.8 57.5" stroke="#8B5B46" stroke-width="2.4" stroke-linecap="round"/>
</svg>
